<?xml version="1.0" standalone="no"?>
<!DOCTYPE svg PUBLIC "-//W3C//DTD SVG 20010904//EN"
 "http://www.w3.org/TR/2001/REC-SVG-20010904/DTD/svg10.dtd">
<svg version="1.0" xmlns="http://www.w3.org/2000/svg"
 width="114.000000pt" height="56.000000pt" viewBox="0 0 114.000000 56.000000"
 preserveAspectRatio="xMidYMid meet">

<g transform="translate(0.000000,56.000000) scale(0.100000,-0.100000)"
fill="#000000" stroke="none">
<path d="M133 438 c-17 -20 -51 -296 -39 -308 5 -5 27 -10 49 -10 34 0 40 4
50 29 l11 30 18 -29 17 -29 212 0 211 0 11 29 11 29 18 -30 c16 -26 23 -29 67
-29 74 0 78 14 27 97 l-44 70 49 49 48 48 -10 -39 c-6 -21 -12 -68 -13 -103
-1 -58 1 -66 27 -88 56 -48 130 -43 185 12 38 38 35 52 -19 74 -23 10 -33 10
-42 1 -6 -6 -19 -11 -29 -11 -15 0 -17 6 -12 48 8 60 17 69 53 56 21 -9 37 -8
64 4 41 16 45 30 21 67 -34 52 -137 56 -197 7 -20 -17 -26 -19 -15 -6 25 28 6
44 -53 44 -40 0 -51 -4 -72 -30 l-26 -30 -3 28 -3 27 -211 3 -212 3 -25 -31
-26 -30 -3 28 c-3 24 -8 27 -44 30 -25 2 -45 -2 -51 -10z m73 -60 l-6 -53 47
53 c45 50 51 53 88 50 l39 -3 -62 -66 c-34 -37 -62 -69 -62 -73 0 -3 20 -37
45 -76 l45 -70 -44 0 c-43 0 -45 2 -75 52 -31 55 -38 53 -43 -12 -3 -32 -6
-35 -39 -38 l-35 -3 20 146 20 145 34 0 35 0 -7 -52z m380 36 c-3 -9 -6 -24
-6 -35 0 -17 -8 -19 -65 -19 -63 0 -65 -1 -65 -25 0 -24 3 -25 56 -25 54 0 55
0 52 -27 -3 -26 -6 -28 -59 -31 -47 -2 -58 -6 -62 -22 -5 -18 0 -20 59 -20
l64 0 -7 -32 c-3 -18 -7 -34 -8 -36 -1 -1 -45 -1 -96 0 l-94 3 19 143 19 142
100 0 c86 0 98 -2 93 -16z m100 -36 l-6 -53 47 53 c45 50 51 53 88 50 l39 -3
-62 -66 c-34 -37 -62 -69 -62 -73 0 -3 20 -37 45 -76 l45 -70 -44 0 c-43 0
-45 2 -75 52 -31 55 -38 53 -43 -12 -3 -32 -6 -35 -39 -38 l-35 -3 20 146 20
145 34 0 35 0 -7 -52z m343 37 c28 -14 47 -42 36 -53 -8 -8 -68 -7 -87 2 -27
12 -54 -24 -61 -84 -4 -29 -4 -57 -1 -61 7 -12 61 -11 69 1 6 10 55 -8 55 -20
0 -4 -12 -17 -26 -31 -20 -19 -36 -24 -76 -24 -42 0 -53 4 -74 29 -22 25 -24
34 -18 90 8 82 31 127 74 148 43 22 72 23 109 3z m-675 -126 c-7 -50 -15 -93
-17 -95 -3 -3 -18 17 -35 44 l-30 49 46 47 c26 25 47 46 48 46 0 0 -5 -41 -12
-91z m235 34 c-1 -17 -3 -21 -6 -10 -4 13 -16 17 -61 19 l-57 1 60 7 c33 4 61
7 63 8 1 1 1 -10 1 -25z m-13 -100 c-10 -10 -19 5 -10 18 6 11 8 11 12 0 2 -7
1 -15 -2 -18z"/>
</g>
</svg>
